<?xml version="1.0" encoding="UTF-8"?> <svg xmlns="http://www.w3.org/2000/svg" id="Layer_1" data-name="Layer 1" viewBox="0 0 500 500"><defs><style>.cls-1{fill:#124c7d;}.cls-2{fill:#fff;}</style></defs><rect id="Rectangle_17" data-name="Rectangle 17" class="cls-1" width="500" height="500"></rect><g id="Group_91" data-name="Group 91"><g id="Group_88" data-name="Group 88"><path id="Path_129" data-name="Path 129" class="cls-2" d="M71.06,370h7a9.29,9.29,0,0,1,10,8.45c0,.2,0,.39,0,.59v.05a9.28,9.28,0,0,1-9.46,9.08,5.15,5.15,0,0,1-.56,0h-7Zm7,15.25a6.07,6.07,0,0,0,6.53-5.52c0-.2,0-.41,0-.61V379a6.05,6.05,0,0,0-5.95-6.19h-4.3v12.35h3.71Z"></path><path id="Path_130" data-name="Path 130" class="cls-2" d="M94.83,370h14v2.86H98.13v4.71h9.44v2.86H98.13v4.87h10.79v2.85H94.83Z"></path><path id="Path_131" data-name="Path 131" class="cls-2" d="M114,370h3.67l5.66,14L129,370h3.55l-7.83,18.28h-2.91Z"></path><path id="Path_132" data-name="Path 132" class="cls-2" d="M138.48,370h14v2.86H141.78v4.71h9.44v2.86h-9.44v4.87h10.8v2.85h-14.1Z"></path><path id="Path_133" data-name="Path 133" class="cls-2" d="M159.24,370h3.3v15.25h9.92v2.91H159.24Z"></path><path id="Path_134" data-name="Path 134" class="cls-2" d="M176.71,379.08v0a9.85,9.85,0,0,1,19.68-.05V379a9.85,9.85,0,0,1-19.68,0Zm16.25,0v0a6.33,6.33,0,0,0-6.23-6.45h-.18a6.24,6.24,0,0,0-6.35,6.13,2.72,2.72,0,0,0,0,.28v0a6.31,6.31,0,0,0,6.2,6.45h.21a6.24,6.24,0,0,0,6.32-6.16,2.17,2.17,0,0,0,0-.26Z"></path><path id="Path_135" data-name="Path 135" class="cls-2" d="M203.16,370h7.39a6.31,6.31,0,0,1,7.11,5.28,5.16,5.16,0,0,1,.05.79v.05a6.52,6.52,0,0,1-6.77,6.26,6.3,6.3,0,0,1-.75,0h-3.73v5.83h-3.3V370Zm7.14,9.44c2.5,0,4.06-1.34,4.06-3.23v-.05c0-2.14-1.57-3.23-4.06-3.23h-3.84v6.53h3.84Z"></path><path id="Path_136" data-name="Path 136" class="cls-2" d="M223.84,370h3.53l5.72,8.6,5.77-8.6h3.52v18.15h-3.32v-13l-5.95,8.57H233l-5.92-8.5v13h-3.25Z"></path><path id="Path_137" data-name="Path 137" class="cls-2" d="M249.93,370h14v2.86H253.23v4.71h9.44v2.86h-9.44v4.87H264v2.85H249.93Z"></path><path id="Path_138" data-name="Path 138" class="cls-2" d="M270.69,370h3.07l10.1,12.57V370h3.24v18.15h-2.78L273.94,375.2v12.91h-3.25Z"></path><path id="Path_139" data-name="Path 139" class="cls-2" d="M299.31,372.92h-6v-3h15.28v3h-6v15.2h-3.32Z"></path><path id="Path_140" data-name="Path 140" class="cls-2" d="M324.8,379.08v0a9.41,9.41,0,0,1,9.42-9.39h.29a10.51,10.51,0,0,1,7.24,2.46l-2.09,2.41a7.55,7.55,0,0,0-5.28-1.93,6.23,6.23,0,0,0-6.11,6.37V379a6.14,6.14,0,0,0,5.84,6.47h.54a8,8,0,0,0,4.56-1.36v-3.41H334.4V378h8v7.63a12.22,12.22,0,0,1-7.86,2.83,9.21,9.21,0,0,1-9.74-8.59A6.45,6.45,0,0,1,324.8,379.08Z"></path><path id="Path_141" data-name="Path 141" class="cls-2" d="M349.45,370h8.39a7.77,7.77,0,0,1,5.44,1.82,5.36,5.36,0,0,1,1.57,3.92v.05a5.47,5.47,0,0,1-4.48,5.49l5.07,6.88h-3.88l-4.63-6.33h-4.15v6.33h-3.32Zm8.17,9c2.37,0,3.86-1.19,3.86-3v-.05c0-2-1.44-3-3.89-3h-4.82v6.06Z"></path><path id="Path_142" data-name="Path 142" class="cls-2" d="M370.81,379.08v0a9.46,9.46,0,0,1,9.55-9.39h.31a9.4,9.4,0,0,1,9.81,8.94c0,.13,0,.27,0,.4V379a9.47,9.47,0,0,1-9.56,9.39h-.31a9.4,9.4,0,0,1-9.81-8.93C370.81,379.36,370.8,379.22,370.81,379.08Zm16.25,0v0a6.33,6.33,0,0,0-6.23-6.45h-.18a6.24,6.24,0,0,0-6.35,6.13,2.72,2.72,0,0,0,0,.28v0a6.3,6.3,0,0,0,6.18,6.45h.2a6.28,6.28,0,0,0,6.35-6.18,1.93,1.93,0,0,0,0-.24Z"></path><path id="Path_143" data-name="Path 143" class="cls-2" d="M397,380.42V370h3.3v10.33c0,3.38,1.8,5.2,4.76,5.2s4.72-1.72,4.72-5.06V370h3.33v10.31a8.08,8.08,0,0,1-16.13.69c0-.18,0-.36,0-.54Z"></path><path id="Path_144" data-name="Path 144" class="cls-2" d="M420.34,370h7.41a6.31,6.31,0,0,1,7.11,5.28,5.16,5.16,0,0,1,.06.79v.05a6.53,6.53,0,0,1-6.78,6.26,6.3,6.3,0,0,1-.75,0h-3.73v5.83h-3.32Zm7.16,9.44c2.5,0,4.07-1.34,4.07-3.23v-.05c0-2.14-1.58-3.23-4.07-3.23h-3.84v6.53h3.84Z"></path></g><g id="Group_89" data-name="Group 89"><path id="Path_145" data-name="Path 145" class="cls-2" d="M199.58,256.94l36.29-14.16v-34H236V141.55l-36.37,17Z"></path><path id="Path_146" data-name="Path 146" class="cls-2" d="M236,137.35l42.24,18.71v43.35c18.48-6.21,30.58-23.35,29.8-42.22v-.37c0-27.07-19.83-45.82-52.62-45.82H199.24v42.49l36.4-16.12"></path></g><g id="Group_90" data-name="Group 90"><path id="Path_147" data-name="Path 147" class="cls-2" d="M71.78,292.06h25.5c14.91,0,23.9,8.52,23.9,20.81V313c0,13.93-11.23,21.16-25.27,21.16H85.52v18.08L71.78,358.1Zm24.64,30.37a9.58,9.58,0,0,0,10.79-8,9.28,9.28,0,0,0,.08-1.06v-.17c0-5.93-4.28-9.1-11.15-9.1H85.52v18.41Z"></path><path id="Path_148" data-name="Path 148" class="cls-2" d="M149.21,292.06h28.56A25.49,25.49,0,0,1,196,298.17a18.62,18.62,0,0,1,5.36,13.76v.17A18.74,18.74,0,0,1,188,330.75l15.27,21.51H187.14L173.75,333H163v19.28H149.21Zm27.66,29.26c6.69,0,10.53-3.46,10.53-8.52v-.17c0-5.66-4.09-8.6-10.79-8.6H163v17.29Z"></path><path id="Path_149" data-name="Path 149" class="cls-2" d="M232.19,292.06h13.73v60.22H232.19Z"></path><path id="Path_150" data-name="Path 150" class="cls-2" d="M279.37,292.06h14.81l16.41,25.48L327,292.08h14.81v60.23H328.18V313L310.61,338.7h-.36l-17.43-25.46v39.07H279.35V292.06Z"></path><path id="Path_151" data-name="Path 151" class="cls-2" d="M396.08,291.63h12.67l26.74,60.66H421.14l-5.72-13.51H389l-5.72,13.51h-14Zm14.45,35.44-8.3-19.52-8.29,19.52Z"></path></g></g></svg> 