<svg xmlns="http://www.w3.org/2000/svg" viewBox="0 0 397 420.15"><defs><style>.cls-1{font-size:34.2px;font-family:MyriadPro-Regular, Myriad Pro;}.cls-1,.cls-3{fill:#4460c6;}.cls-2{fill:none;stroke:#4460c6;stroke-miterlimit:10;stroke-width:5px;}</style></defs><title>Asset 1</title><g id="Layer_2" data-name="Layer 2"><g id="Layer_1-2" data-name="Layer 1"><text class="cls-1" transform="translate(131.19 40.54) rotate(-17.77)">B</text><text class="cls-1" transform="translate(148.31 35.02) rotate(-12.3)">u</text><text class="cls-1" transform="translate(166.25 31.17) rotate(-7.32)">c</text><text class="cls-1" transform="translate(180.96 29.18) rotate(-2.37)">h</text><text class="cls-1" transform="matrix(1, 0.05, -0.05, 1, 199.42, 28.45)">a</text><text class="cls-1" transform="matrix(0.99, 0.12, -0.12, 0.99, 215.46, 29.28)">r</text><text class="cls-1" transform="translate(225.86 30.36) rotate(10.7)">e</text><text class="cls-1" transform="translate(242.26 33.52) rotate(15.19)">s</text><text class="cls-1" transform="matrix(0.95, 0.32, -0.32, 0.95, 254.95, 36.98)">t</text><text class="cls-1" transform="matrix(0.95, 0.3, -0.3, 0.95, 132.46, 400.16)">R</text><text class="cls-1" transform="translate(151.69 406.09) rotate(11.26)">o</text><text class="cls-1" transform="translate(172.05 410.34) rotate(3.6)">m</text><text class="cls-1" transform="translate(202.37 411.76) rotate(-3.56)">a</text><text class="cls-1" transform="matrix(0.99, -0.16, 0.16, 0.99, 220.3, 410.63)">n</text><text class="cls-1" transform="matrix(0.97, -0.24, 0.24, 0.97, 240.1, 407.13)">i</text><text class="cls-1" transform="translate(248.89 405.1) rotate(-17.69)">a</text><path class="cls-2" d="M112.32,392.2a196.08,196.08,0,0,1,0-352.17"/><path class="cls-2" d="M284.32,39.85a196.08,196.08,0,0,1,.07,352.49"/><path class="cls-3" d="M211.85,330.63h-1.08a8,8,0,0,1-3.27-1.77,5,5,0,0,0-3.48-1.2,8.39,8.39,0,0,1-3.32-.46c-3.48-1.48-7-1-10.6-.66a6.33,6.33,0,0,1-4.15-.8,5.38,5.38,0,0,1-.71-.39c-2.36-1.94-4.69-1.64-7.19-.16-2.77,1.64-6,1.82-9.09,2.18a3.2,3.2,0,0,1-2.19-.54,22.42,22.42,0,0,0-6.46-2.63,38.11,38.11,0,0,1-6.8-2.55,4.69,4.69,0,0,0-2.86-.52,6.84,6.84,0,0,1-5.26-1.11c-.47-.36-1-.67-1.1-1.3a8,8,0,0,1-.2-2.28q0-100.49,0-201a6,6,0,0,1,.19-2.26c.46-.78,1.16-.64,1.77-.33a10.64,10.64,0,0,0,5.25.83,33.88,33.88,0,0,1,6.43.58,3.78,3.78,0,0,1,2.47,1.26,2.18,2.18,0,0,0,2.5.81,7.49,7.49,0,0,1,5,.5,11.16,11.16,0,0,0,6.84.55c2.17-.36,4.35-.59,6.53-.92a4.16,4.16,0,0,1,2.12.24c1.22.46,2.41,1,3.59,1.53a3.86,3.86,0,0,1,1.89,1.67,6.44,6.44,0,0,0,2.63,2.62,10.51,10.51,0,0,1,3.81,3.91c1,1.72,2.67,2,4.35.92a11.86,11.86,0,0,0,4.16-4.32c2-3.63,5.29-4.68,9.08-5,3.39-.34,6.82-.29,10.19-.81,2.88-.44,5.61-1.64,8.54-1.82a9.19,9.19,0,0,0,5.39-2.17,9.75,9.75,0,0,0,3.28-5.45,4.44,4.44,0,0,1,4.6-3.83,10.34,10.34,0,0,0,5.84-1.76,1.55,1.55,0,0,1,2.39.18,8.88,8.88,0,0,1,.22,3.08V306.11a7.42,7.42,0,0,1-.19,2.53c-.35,1-1.27,1.07-2.1,1.15-1.47.15-2.94.32-4.39.6-3.4.67-6.69,1.74-9.17,4.21-2.15,2.14-4.44,4.19-6.38,6.55-1.33,1.63-3.08,2.87-4.27,4.64a2.82,2.82,0,0,1-1.73,1.22c-2.64.49-4.82,2.11-7.41,2.74C215.65,330.21,213.72,330.17,211.85,330.63Z"/><path class="cls-3" d="M36.75,200.85a3.69,3.69,0,0,1,4-1.27,18.28,18.28,0,0,0,2.68.21c.34,0,.77.11,1-.26.71-1.21,1.55-.69,2.4-.21l.93.54c3.11,1.87,4.48.31,5.69-2,1.12-2.13,2.53-3.18,4.82-2.79,1.88.32,3.79.12,5.66.75,1.51.52,4.16-1.26,4.64-2.79.23-.72.42-1.46.64-2.19.34-1.14.83-2,2.25-2.11,1,0,1.42-.72.93-1.69a3.83,3.83,0,0,1,.41-4.06,8.46,8.46,0,0,0,1-2.74,2.25,2.25,0,0,1,2.7-2,2.13,2.13,0,0,0,1.9-.74,2.17,2.17,0,0,1,.5-.46c1.35-.8,2.3-1.72,1.53-3.49-.19-.45.16-.95.43-1.37.8-1.24,1.61-2.49,2.43-3.71a3.43,3.43,0,0,0,.86-2.34c-.07-.59.34-1,.68-1.41a25.4,25.4,0,0,0,1.57-2,2.83,2.83,0,0,0,.3-3.27A1,1,0,0,1,87,158c3.68-2.51,5.48-6.29,6.91-10.3a11.13,11.13,0,0,1,3.82-5,2.13,2.13,0,0,0,1-2.18c-.47-2.85.73-4.84,3.17-6.21.15-.09.28-.23.43-.32a9.22,9.22,0,0,0,4.48-4.81c.84-2.12,2.54-4,5.31-3.94a1.34,1.34,0,0,0,.94-.45c1.09-1.44,2.57-1.32,4-1a5,5,0,0,0,4.83-1.16c1.12-1,2.41-1.64,3.26-3.1s2.76-2.52,4.25-3.68a3.14,3.14,0,0,0,1.41-1.89c.1-.63.55-.63,1-.67.72-.06,1.44-.06,2.16-.13a2.32,2.32,0,0,0,2.39-2c.48-2.54,3-3.31,5-1.62,1.17,1,2,2.46,3.36,3.27,0,.59-.05,1.17-.05,1.76V317.15c0,.58,0,1.16,0,1.75a.89.89,0,0,1-1,.13c-2.29-1-4.6-.46-6.9-.1-2.09.33-4.12,1-6.2,1.3a12.05,12.05,0,0,1-7.93-1.48,3.81,3.81,0,0,1-2.2-3.72c0-.72,0-1.44,0-2.16a4.44,4.44,0,0,1,3.26-4.45,8,8,0,0,0,1.76-.68c1.4-.82,1.47-1.81.06-2.61-2.66-1.52-5.07-3.4-7.61-5.11a4.43,4.43,0,0,1-2.13-2.81,2.67,2.67,0,0,0-1.51-1.81c-3.64-1.89-4.61-5.45-5.56-9-.34-1.24.28-2.07,1.6-2.36a4.06,4.06,0,0,0,2.55-1.58,3.14,3.14,0,0,1,3.41-1,3,3,0,0,0,1.79.18,4.08,4.08,0,0,0-2.14-1.46c-2.12-.86-4.08-1.88-5.31-3.94a1.35,1.35,0,0,0-1.88-.5,9.7,9.7,0,0,0-4.55,3.44c-1.12,1.63-2.26,3.25-3.33,4.91-1.34,2.1-2.69,2.22-4.47.47a5.41,5.41,0,0,1-1.43-1.78c-.7-1.82-2.35-2.78-3.57-4.12-1.54-1.7-3.64-1.53-5.63-1.69a19.88,19.88,0,0,1-3.61-.34,4.7,4.7,0,0,1-3.67-3.57,2.28,2.28,0,0,0-2-1.88,24.54,24.54,0,0,1-3.16-.63,3.72,3.72,0,0,1-2.64-2.65c-.68-2.56.39-4,3-4.16a7.19,7.19,0,0,0,1.74-.17c.32-.1.83,0,.88-.42s-.43-.53-.72-.73c-.51-.37-1.11-.58-1.65-.91a4.82,4.82,0,0,1-1.92-2c-.68-1.43-.41-2.58,1-3.32,1.75-.94,2.16-2.66,2.73-4.3.22-.62-.23-1.11-.69-1.5A7.27,7.27,0,0,0,72.36,249a13.33,13.33,0,0,1-6.42-3.78,2,2,0,0,0-.74-.58c-4.18-1.47-6.9-4.75-9.74-7.87-.69-.77-1.38-1.54-2.1-2.27a2.18,2.18,0,0,1-.51-2.91,1.18,1.18,0,0,0,.09-1.16c-1.11-2.36-.65-4.75-.11-7.13.07-.31.1-.62.18-.93.17-.68,0-1-.78-.92a1.8,1.8,0,0,1-2.16-1.57c-.52-2.92-2.5-4.8-4.57-6.63a7.48,7.48,0,0,0-1.26-1c-4.23-2.46-6.23-6.42-7.49-10.9Z"/><path class="cls-3" d="M252.57,102c3.17-1,5.76-.22,8.3,1.95,1.51,1.29,2.62,2.93,4.2,4.1a1.16,1.16,0,0,1,.56,1.15,3.63,3.63,0,0,0,1.83,3.65,8.27,8.27,0,0,1,3.11,4.72c1.21,3.69,2.09,7.57,3.9,11,1.71,3.22,3.52,6.59,6.15,9.11,2.26,2.16,3.9,4.3,4.32,7.41a4.4,4.4,0,0,0,2.33,3,15.47,15.47,0,0,1,4.56,4.86c2.24,3.41,4.6,6.78,8.26,8.91a3.56,3.56,0,0,1,1.64,2,18.48,18.48,0,0,1,1.17,3.85c.25,3.29,1.85,6,3.55,8.62a7.76,7.76,0,0,1,1.27,4.54c-.05,3.18-.19,6.39.9,9.47a1.43,1.43,0,0,1-.27,1.26A7.52,7.52,0,0,0,307,196c.08,1-.87,1.63-1.55,2.26a2.94,2.94,0,0,0-1,2.5,47.11,47.11,0,0,1-.34,8.88c-.21,1.45.37,2.84.56,4.26.24,1.78.51,3.55.72,5.33a17.14,17.14,0,0,0,.94,4.46,16.76,16.76,0,0,1,.81,5c.14,1.75-.78,2.66-2.48,3.24a6,6,0,0,1,3.18,4.42c.19.88.57,1.47,1.59,1.5,1.29,0,1.88.76,2,2a9.55,9.55,0,0,0,.62,2.19,4.23,4.23,0,0,0,3.11,2.87c2.17.54,4.31,1.24,6.46,1.88a16.29,16.29,0,0,0,4.67.51c.89,0,1.3-.19,1.17-1.19a3.57,3.57,0,0,1,.59-2.05c.78-1.47,1.77-1.62,3-.48,1.57,1.46,1.51,1.39,3.24.12,2.64-1.94,5.39-3.73,8-5.66a7.92,7.92,0,0,1,6-1.29,25.94,25.94,0,0,1,7.67,2.4,4.93,4.93,0,0,1,3,4.4,5.86,5.86,0,0,0,.59,2.74c.22.38.05.44-.19.58-1.06.61-1.11,1.36-.19,2.11a2.33,2.33,0,0,1,.73,2.66c-.79,2.89-.42,5.91-.93,8.83a22.35,22.35,0,0,0-.63,5.47,2.58,2.58,0,0,1-.48,1.66c-.23.32-.61.59-.87.17-.52-.85-1.14-.36-1.75-.25-3.41.6-6.81,1.24-10.23,1.74a7,7,0,0,0-4.51,2.41,20,20,0,0,1-1.55,1.5c-1.53,1.39-2.3,1.26-3.5-.45-.33-.45-.07-.62.17-.88a7.84,7.84,0,0,1,2-1.37c.51-.28,1.06-.5,1.55-.81s1.58-.79,1.42-1.6-1.14-.5-1.75-.56a1.38,1.38,0,0,1-1.42-1.47c-.06-1.66-.67-3.4.79-4.84.49-.48.05-.79-.43-1a4.4,4.4,0,0,0-5.46,3.92,2.12,2.12,0,0,0,1,1.69c1.71,1.25,1.64,3.06,1.62,4.88,0,.54-.43.62-.75.83-1,.64-2,1.24-2.91,1.94a2,2,0,0,0-.77,2.54,16.4,16.4,0,0,0,2.78-2.31,1.47,1.47,0,0,1,2.44.74c.09.35.16.77-.25.95-1.44.64-2.35,2-3.61,2.8a5.43,5.43,0,0,0-.57.35c-.55.44-1.48.12-1.83.95a6.8,6.8,0,0,0-.21,3.67c.52-.18.63-.71.9-1.09a15,15,0,0,1,3.39-3.62c.38-.28.79-.51,1.22-.15s.25.74.09,1.11a25.77,25.77,0,0,1-1.18,2.42c-2.26,3.83-4.51,7.66-7.8,10.75a2.62,2.62,0,0,0-.42,2.81c1,3.1.58,6.34,1.09,9.46a19.28,19.28,0,0,1-.88,10.4,13.93,13.93,0,0,0-.66,4.78c0,1.93-1,2.79-2.95,2.54a66.59,66.59,0,0,1-13-2.79c-3.62-1.26-6.31-3.39-7.28-7.25-.33-1.33-1-1.75-2.29-1.18a18.35,18.35,0,0,1-2.48.62,4.65,4.65,0,0,1-5.19-1.62,1.83,1.83,0,0,0-2.11-.67c-2.37.57-4.82.34-7.25.37a1.15,1.15,0,0,1-.82-.39c-.31-.32-.65-.62-.95-1-4.45-5.2-10.11-5.19-16.09-3.74a4.57,4.57,0,0,0-1.49.62c-3.2,2.29-7,2.66-10.69,3.32,0-.68,0-1.35,0-2V104.07C252.59,103.39,252.58,102.72,252.57,102Z"/></g></g></svg>